<svg width="24" height="24" fill="none" xmlns="http://www.w3.org/2000/svg"><path fill="currentColor" d="M9 18v1h6v-1zm8-13.95c0-.6-.38-1.13-.95-1.32l-1.53-.52a4 4 0 0 0-1.3-.21h-2.05q-.57 0-1.13.16l-2.03.58A1.4 1.4 0 0 0 7 4.08v9.25h-.01V19L7 20.7A2.3 2.3 0 0 0 9.3 23h5.4a2.3 2.3 0 0 0 2.3-2.3V18h-1v2.7c0 .72-.58 1.3-1.3 1.3H9.3A1.3 1.3 0 0 1 8 20.7L7.99 18v-3.66l.01-.5V4.08a.4.4 0 0 1 .29-.38l2.03-.58q.41-.12.85-.12h2.04q.51 0 .99.16l1.53.51q.26.1.27.38v10.16l3.15 3.14.7-.7L17 13.79zM9 9v1h6V9z"/></svg>