<svg width="16" height="16" fill="none" xmlns="http://www.w3.org/2000/svg"><path fill="currentColor" d="M15 12.96c0-1.12-.93-2.04-2.1-2.04-1.19 0-2.12.92-2.12 2.04 0 1.11.93 2.04 2.11 2.04s2.1-.93 2.1-2.04m-15 .63V9.44h1v4.15l.03.1.03.02.1.02h1.3q.09 0 .1-.02l.02-.02.02-.05v-1.18h6.7v1H3.6v.13a1.1 1.1 0 0 1-1.15 1.13h-1.3A1.1 1.1 0 0 1 0 13.6m13.4-.95v1.9h-1v-1.9zM8.46 5.63A3.7 3.7 0 0 0 4.74 2 3.7 3.7 0 0 0 1 5.63a3.7 3.7 0 0 0 3.74 3.62 3.7 3.7 0 0 0 3.73-3.62m4.92 5.74v.64h-1v-.64zM12.26 3.6l.26.02.13.22 1.93 3.1 1.27 1.23.15.14v1.78h-1V8.73L13.84 7.6l-.04-.04-.03-.05-1.83-2.93-1.99-.12.06-1zm-5.58.36.03.5-2.66.13L2.6 6.84l-.84-.54 1.57-2.47.14-.22.26-.01 2.92-.15zm9.32 9c0 1.7-1.4 3.05-3.1 3.05s-3.12-1.35-3.12-3.04c0-1.7 1.4-3.04 3.11-3.04 1.7 0 3.1 1.35 3.1 3.04M9.47 5.64c0 1.44-.68 2.73-1.74 3.58l1.72 2.55-.42.28-.41.28-1.73-2.57a5 5 0 0 1-2.15.5A4.7 4.7 0 0 1 0 5.63 4.7 4.7 0 0 1 4.74 1c2.6 0 4.73 2.06 4.73 4.63"/></svg>