<svg width="48" height="48" fill="none" xmlns="http://www.w3.org/2000/svg"><path fill="currentColor" d="M45.04 38a7 7 0 1 0-14 0 7 7 0 0 0 14 0M2 40.63V27h1v13.63c0 .23.07.59.28.87.19.27.5.5 1.1.5h3.74c.6 0 .91-.23 1.1-.5.2-.28.28-.64.28-.87V37H28v1H10.5v2.63c0 .39-.11.97-.47 1.46-.37.52-1 .91-1.9.91H4.36c-.9 0-1.53-.4-1.9-.91A2.6 2.6 0 0 1 2 40.62m36.54-3.57V43h-1v-5.94zM26 16.5a11.5 11.5 0 1 0-23 0 11.5 11.5 0 0 0 23 0M38.54 33v2h-1v-2zm-2.41-21.59.26.02.14.22 5.6 9.26 3.72 3.7.15.15V30h-1v-4.83l-3.62-3.6-.04-.04-.03-.05-5.5-9.08-6.84-.4.06-1zm-15.97.08.02.5-8.13.42-4.4 7.07-.84-.52 4.67-7.52 8.65-.45zm25.88 26.5a8 8 0 1 1-16 0 8 8 0 0 1 16 0M27 16.5c0 4.22-2.1 7.95-5.3 10.21l.1-.06 6.2 9.33-.83.56-6.22-9.33.17-.11A12.5 12.5 0 1 1 27 16.5"/></svg>