<svg width="25" height="25" fill="none" xmlns="http://www.w3.org/2000/svg"><path fill="currentColor" d="M23 19.54a3.25 3.25 0 1 0-6.5 0 3.25 3.25 0 0 0 6.5 0m-23 1V14h1.5v6.54a.4.4 0 0 0 .06.19l.04.04.15.02h2l.15-.02.04-.04.05-.1.01-.09V18.8h10.25v1.5H5.5v.25c0 .29-.08.7-.34 1.06-.29.4-.76.7-1.4.7h-2a1.7 1.7 0 0 1-1.42-.7A2 2 0 0 1 0 20.54m20.5-1.5v3H19v-3zM13 8A5.75 5.75 0 1 0 1.5 8a5.75 5.75 0 0 0 11.49 0m7.51 9.04v1H19v-1zM19.17 4.86l.2.33 2.97 4.89 2.16 2.15V15H23v-2.14l-1.79-1.78-.06-.07-.05-.08-2.8-4.63-3.05-.18.04-.75.05-.75zm-8.94.5.04.74-4.08.22-2.21 3.55-.64-.4-.64-.39L5.12 5.2l.2-.33 4.87-.25zM24.5 19.54a4.75 4.75 0 1 1-9.5 0 4.75 4.75 0 0 1 9.5 0M14.49 8a7.2 7.2 0 0 1-2.69 5.62l2.66 4.07-1.25.82-2.66-4.07q-1.52.78-3.3.8A7.25 7.25 0 1 1 14.49 8"/></svg>