<svg width="24" height="25" fill="none" xmlns="http://www.w3.org/2000/svg"><path fill="currentColor" d="M23 19.54a3.5 3.5 0 1 0-7 0 3.5 3.5 0 0 0 7 0m-23 1V14h1v6.54c0 .09.03.23.1.33.06.08.16.17.4.17h2c.24 0 .34-.09.4-.17.07-.1.1-.24.1-.33v-1.5h10v1H5v.5c0 .25-.07.6-.3.92a1.4 1.4 0 0 1-1.2.58h-2a1.4 1.4 0 0 1-1.2-.58c-.23-.31-.3-.67-.3-.92m20-1.5v3h-1v-3zM13 8A6 6 0 1 0 1 8a6 6 0 0 0 11.99 0M20 17.04v1h-1v-1zM18.52 5.08l.26.02 3.1 5.13 1.97 1.96.15.15V15h-1v-2.25l-1.86-1.85-.04-.04-.03-.06-2.88-4.74-3.18-.19.03-.5.03-.5zm-8.54.28.03.5-4.22.22-2.28 3.66-.42-.26-.43-.27 2.42-3.88.14-.23 4.74-.24zM24 19.54a4.5 4.5 0 1 1-9 0 4.5 4.5 0 0 1 9 0M13.99 8c0 2.27-1.09 4.3-2.77 5.57L14 17.82l-.41.28-.42.27-2.79-4.25A7 7 0 1 1 13.98 8"/></svg>