<svg width="48" height="48" fill="none" xmlns="http://www.w3.org/2000/svg"><path fill="currentColor" d="M14 39.9V34h1v5.9a3.1 3.1 0 0 0 3.1 3.1h10.8a3.1 3.1 0 0 0 3.1-3.1V34h1v5.9a4.1 4.1 0 0 1-4.1 4.1H18.1a4.1 4.1 0 0 1-4.1-4.1M30.05 32l-.05.55-.34 3.38A2.3 2.3 0 0 1 27.37 38h-7.74a2.3 2.3 0 0 1-2.29-2.07L17 32.55l-.05-.55zm-11.71 3.83A1.3 1.3 0 0 0 19.63 37h7.74c.67 0 1.23-.5 1.3-1.17l.28-2.83h-10.9zm-3.49-7.98-7 7-.7-.7 7-7zm25 6.3-.7.7-7-7 .7-.7zM14 9.9a4.1 4.1 0 0 1 2.68-3.85q1.92-.7 3.15-.87c1.85-.25 5.68-.23 7.34 0q1.13.15 3.14.89A4.1 4.1 0 0 1 33 9.92v9.37l6.85 6.86-.7.7L32 19.71V9.92a3.1 3.1 0 0 0-2.03-2.91 16 16 0 0 0-2.94-.84 38 38 0 0 0-7.06 0q-1.08.14-2.94.82A3.1 3.1 0 0 0 15 9.89v9.82l-7.15 7.14-.7-.7L14 19.29zm13.37 6.08c1.18 0 2.17.9 2.29 2.07l.34 3.4.05.55h-13.1l.05-.55.34-3.4a2.3 2.3 0 0 1 2.29-2.07zm-7.74 1c-.67 0-1.23.5-1.3 1.17L18.06 21h10.9l-.29-2.85a1.3 1.3 0 0 0-1.29-1.17z"/></svg>