<svg width="16" height="16" fill="none" xmlns="http://www.w3.org/2000/svg"><path fill="currentColor" d="M15 12.9a2.1 2.1 0 1 0-4.22 0 2.1 2.1 0 0 0 4.22 0M8.5.5v1.02a6.5 6.5 0 0 1 5.98 5.98h1.02v1h-1.02q-.02.3-.07.6l-.5-.09-.49-.08q.04-.21.06-.43H11.5v-1h1.98A5.5 5.5 0 0 0 8.5 2.52V4.5h-1V2.52A5.5 5.5 0 0 0 2.52 7.5H4.5v1H2.52a5.5 5.5 0 0 0 4.98 4.98V11.5h1v1.98q.22-.02.43-.06l.08.5.08.49q-.3.05-.59.07v1.02h-1v-1.02A6.5 6.5 0 0 1 1.52 8.5H.5v-1h1.02A6.5 6.5 0 0 1 7.5 1.52V.5zm4.9 12.07v1.95h-1v-1.95zm0-1.3v.64h-1v-.65zm2.6 1.62a3.1 3.1 0 1 1-6.22 0 3.1 3.1 0 0 1 6.22 0"/></svg>