<svg width="25" height="25" fill="none" xmlns="http://www.w3.org/2000/svg"><path fill="currentColor" d="M22.75 19.5a3.25 3.25 0 1 0-6.5 0 3.25 3.25 0 0 0 6.5 0m-10-19v1.78a9.7 9.7 0 0 1 8.97 8.97h1.78v1.5h-1.78q-.05.72-.2 1.41l-1.47-.32q.12-.54.16-1.09H17.5v-1.5h2.71a8.2 8.2 0 0 0-7.46-7.47V6.5h-1.5V3.78a8.2 8.2 0 0 0-7.46 7.47H6.5v1.5H3.79a8.2 8.2 0 0 0 7.46 7.46V17.5h1.5v2.71q.55-.04 1.09-.16l.32 1.46q-.69.15-1.41.21v1.78h-1.5v-1.78a9.7 9.7 0 0 1-8.97-8.97H.5v-1.5h1.78a9.7 9.7 0 0 1 8.97-8.97V.5zm7.5 18.5v3h-1.5v-3zm0-2v1h-1.5v-1zm4 2.5a4.75 4.75 0 1 1-9.5 0 4.75 4.75 0 0 1 9.5 0"/></svg>